# xmcd
#
# Track frame offsets:
#   150
#   21625
#   40170
#   54442
#   83395
#   98775
#   116567
#   141215
#   165112
#   181880
#   203545
#
# Disc length: 2952 seconds
#
# Revision: 0
# Processed by: cddbd v1.4PL0 Copyright (c) Steve Scherf et al.
# Submitted via: uFREEDB 1.6.0
#
DISCID=800b860b
DTITLE=Hohn Lee Hooker - Chill Out
DYEAR=1970
DGENRE=Blues
TTITLE0=chill out
TTITLE1=deep blue sea
TTITLE2=kiddio
TTITLE3=serves me right to suffer/syndicator
TTITLE4=one bourbon, one scotch, one beer
TTITLE5=tupelo
TTITLE6=woman on my mind
TTITLE7=annie mae
TTITLE8=talkin' the blues
TTITLE9=if you've never been in love
TTITLE10=we'll meet again
EXTD=
EXTT0=
EXTT1=
EXTT2=
EXTT3=
EXTT4=
EXTT5=
EXTT6=
EXTT7=
EXTT8=
EXTT9=
EXTT10=
PLAYORDER=
